<svg width="344" height="96" fill="none" xmlns="http://www.w3.org/2000/svg"><path d="M23.093 36.373a11.358 11.358 0 00-4.053-2.826c-1.547-.64-3.2-.96-4.853-.907C5.867 32.64 0 39.467 0 48.32c0 8.907 5.867 15.573 14.24 15.573 1.653.054 3.253-.266 4.8-.853 1.547-.587 2.88-1.547 4.053-2.667v.8c0 4.427-3.2 6.88-7.733 6.88-3.573-.106-7.093-1.12-10.133-2.986v10.186c3.2 1.44 6.666 2.187 10.133 2.134 11.253 0 17.76-5.6 17.76-17.6V33.28H23.093v3.093zm-1.6 15.2c-.64.96-1.546 1.707-2.666 2.187-1.067.427-2.24.587-3.414.32-1.12-.213-2.186-.8-3.04-1.6a5.852 5.852 0 01-1.6-2.987 6.222 6.222 0 01.32-3.413c.427-1.067 1.227-1.973 2.187-2.667.96-.64 2.133-1.013 3.253-1.013.8 0 1.547.16 2.24.427.694.32 1.387.746 1.92 1.28.534.533.96 1.173 1.28 1.92.32.693.427 1.493.427 2.24.107 1.173-.213 2.293-.907 3.306zm35.359-.586c0 .533-.053 1.066-.266 1.6-.213.48-.48.96-.853 1.333a4.542 4.542 0 01-1.334.907c-.48.213-1.066.32-1.6.266-2.453 0-4-1.706-4-4.533V33.28H38.773v20.267c0 6.453 4.16 11.253 10.506 11.253 1.493.053 2.987-.32 4.32-1.013 1.334-.694 2.454-1.76 3.254-3.04v3.36h10.026V33.28H56.852v17.707zm28.908-17.44c-1.227.64-2.293 1.546-3.04 2.666V33.28H72.693v30.88h9.974V46.507c0-.587.16-1.12.373-1.654.213-.533.587-.96.96-1.333.427-.373.907-.693 1.44-.853.533-.214 1.067-.267 1.653-.267 1.707 0 3.36.32 4.907.96V32.853a16.768 16.768 0 00-2.347-.16c-1.333-.053-2.666.267-3.893.854zm28.908 17.44c0 .533-.053 1.066-.267 1.6-.213.48-.48.96-.853 1.333a4.535 4.535 0 01-1.333.907c-.48.213-1.067.32-1.6.266-2.454 0-4-1.706-4-4.533V33.28H96.588v20.267c0 6.453 4.16 11.253 10.507 11.253 1.493.053 2.986-.32 4.32-1.013 1.333-.694 2.453-1.76 3.253-3.04v3.36h10.027V33.28h-10.027v17.707zm33.386-18.347a9.41 9.41 0 00-4.32 1.067c-1.333.693-2.453 1.76-3.253 2.986V21.867h-10.027V64.16h10.027V46.507a3.273 3.273 0 01.266-1.6c.214-.534.48-.96.907-1.387a4.164 4.164 0 011.387-.907c.533-.213 1.066-.266 1.6-.266.586 0 1.12.106 1.653.32.533.213.96.586 1.387 1.013.373.427.64.907.853 1.44.213.533.213 1.12.16 1.653v17.28h10.027V43.947c-.107-6.454-4.267-11.307-10.667-11.307zm39.358 2.72c-2.666-1.76-5.76-2.72-8.96-2.72-2.133-.053-4.213.373-6.186 1.173-1.974.8-3.787 1.974-5.28 3.467-1.494 1.493-2.667 3.307-3.467 5.227-.8 1.973-1.173 4.053-1.173 6.186 0 3.2.96 6.294 2.72 8.96 1.76 2.667 4.32 4.694 7.253 5.92a15.955 15.955 0 009.333.907c3.147-.64 6.027-2.133 8.267-4.427a16.288 16.288 0 004.427-8.266c.64-3.147.32-6.347-.907-9.28-1.333-2.88-3.413-5.387-6.027-7.147zm-2.826 16.107c-.534 1.173-1.44 2.133-2.507 2.773-1.12.64-2.347.96-3.627.853-.8 0-1.6-.213-2.346-.533-.747-.32-1.387-.8-1.974-1.387a6.833 6.833 0 01-1.28-2.08c-.266-.746-.426-1.546-.373-2.4 0-1.28.373-2.506 1.12-3.573a6.63 6.63 0 012.933-2.347c1.174-.48 2.507-.533 3.734-.266 1.226.266 2.4.906 3.253 1.866a6.462 6.462 0 011.653 3.36 6.842 6.842 0 01-.586 3.734zm25.816-26.507l-9.44 2.027v6.293h-4.747v8.533h4.16V64.16h10.027V41.813h4.8V33.28h-4.8v-8.32zm21.651 7.68c-8.96 0-15.52 6.987-15.52 16.053 0 9.76 6.827 16.107 16.107 16.107a27.303 27.303 0 0011.093-2.027v-9.386a21.276 21.276 0 01-10.186 2.453c-3.627 0-6.187-1.547-6.934-4.16h19.2c.374-1.493.534-3.04.534-4.587-.054-7.68-5.28-14.453-14.294-14.453zm-5.546 11.68a5.48 5.48 0 012.186-2.613c.96-.64 2.134-.907 3.307-.8 2.773 0 4.587 1.386 4.8 3.413h-10.293zm33.653-22.453h-10.026V64.16h10.026V21.867z" fill="#221F5D"/><path d="M289.288 9.61l-5.622 76.877h28.06V9.61h-22.438z" fill="#2278DD"/><path d="M343.727 9.61L313.841 0v96l29.886-9.513V9.61zm-21.766 45.886l-2.21.48V40.601l2.21-.24v15.135z" fill="#FF9839"/></svg>